# xmcd
#
# Track frame offsets: 
#        183
#        16145
#        39893
#        66455
#
# Disc length: 1209 seconds
#
# Revision: 1
# Processed by: cddbd v1.5.2PL0 Copyright (c) Steve Scherf et al.
# Submitted via: ExactAudioCopy v1.0b3
#
DISCID=2904b704
DTITLE=La Bouche - Fallin' In Love
DYEAR=1995
DGENRE=Euro-House
TTITLE0=Fallin' In Love (Radio Version) 
TTITLE1=Fallin' In Love (Melody La Bouche Chant Club Mix)
TTITLE2=Fallin' In Love (Franks House Mix)
TTITLE3=Fallin' In Love (Spike House Mix)
EXTD=
EXTT0=
EXTT1=
EXTT2=
EXTT3=
PLAYORDER=
